<svg xmlns="http://www.w3.org/2000/svg" viewBox="0 0 640 400" role="img" aria-label="Automation"><defs><pattern id="g" width="32" height="32" patternUnits="userSpaceOnUse"><path d="M32 0H0V32" fill="none" stroke="#F5F7F6" stroke-opacity=".06"/></pattern><radialGradient id="o"><stop offset="0" stop-color="#00FF88" stop-opacity=".2"/><stop offset="1" stop-color="#00FF88" stop-opacity="0"/></radialGradient></defs><rect width="640" height="400" fill="#0B0F0D"/><rect width="640" height="400" fill="url(#g)"/><circle cx="320" cy="200" r="230" fill="url(#o)"/><rect transform="rotate(0 320 200)" x="313" y="141" width="14" height="14" rx="0" fill="#101713" stroke="#00FF88" stroke-width="1.5" opacity="1"/><rect transform="rotate(45 320 200)" x="313" y="141" width="14" height="14" rx="0" fill="#101713" stroke="#00FF88" stroke-width="1.5" opacity="1"/><rect transform="rotate(90 320 200)" x="313" y="141" width="14" height="14" rx="0" fill="#101713" stroke="#00FF88" stroke-width="1.5" opacity="1"/><rect transform="rotate(135 320 200)" x="313" y="141" width="14" height="14" rx="0" fill="#101713" stroke="#00FF88" stroke-width="1.5" opacity="1"/><rect transform="rotate(180 320 200)" x="313" y="141" width="14" height="14" rx="0" fill="#101713" stroke="#00FF88" stroke-width="1.5" opacity="1"/><rect transform="rotate(225 320 200)" x="313" y="141" width="14" height="14" rx="0" fill="#101713" stroke="#00FF88" stroke-width="1.5" opacity="1"/><rect transform="rotate(270 320 200)" x="313" y="141" width="14" height="14" rx="0" fill="#101713" stroke="#00FF88" stroke-width="1.5" opacity="1"/><rect transform="rotate(315 320 200)" x="313" y="141" width="14" height="14" rx="0" fill="#101713" stroke="#00FF88" stroke-width="1.5" opacity="1"/><circle cx="320" cy="200" r="50" fill="#101713" stroke="#00FF88" stroke-width="1.5" opacity="1"/><circle cx="320" cy="200" r="21.0" fill="none" stroke="#00FF88" stroke-width="1.5" opacity="1"/><rect x="55.0" y="113.0" width="110" height="34" rx="4" fill="#101713" stroke="#00FF88" stroke-width="1.5" opacity="1"/><text x="110" y="134" font-family="ui-monospace,Menlo,Consolas,monospace" font-size="11" fill="#F5F7F6" text-anchor="middle" font-weight="400" opacity="1">TRIGGER</text><rect x="55.0" y="253.0" width="110" height="34" rx="4" fill="#101713" stroke="#00FF88" stroke-width="1.5" opacity="1"/><text x="110" y="274" font-family="ui-monospace,Menlo,Consolas,monospace" font-size="11" fill="#F5F7F6" text-anchor="middle" font-weight="400" opacity="1">SCHEDULE</text><rect x="475.0" y="113.0" width="110" height="34" rx="4" fill="rgba(0,255,136,.12)" stroke="#00FF88" stroke-width="1.5" opacity="1"/><text x="530" y="134" font-family="ui-monospace,Menlo,Consolas,monospace" font-size="11" fill="#F5F7F6" text-anchor="middle" font-weight="400" opacity="1">EMAIL</text><rect x="475.0" y="253.0" width="110" height="34" rx="4" fill="rgba(0,255,136,.12)" stroke="#00FF88" stroke-width="1.5" opacity="1"/><text x="530" y="274" font-family="ui-monospace,Menlo,Consolas,monospace" font-size="11" fill="#F5F7F6" text-anchor="middle" font-weight="400" opacity="1">REPORT</text><line x1="166" y1="140" x2="268" y2="185" stroke="#00FF88" stroke-width="1.5" opacity="1"/><polygon points="268,185 260.00476270912435,185.27600844659506 262.81387595779995,178.9086850829304" fill="#00FF88"/><line x1="166" y1="262" x2="268" y2="216" stroke="#00FF88" stroke-width="1.5" opacity="1"/><polygon points="268,216 262.8638563969886,222.13351684510974 260.0027731424706,215.78937571552635" fill="#00FF88"/><line x1="372" y1="185" x2="474" y2="140" stroke="#00FF88" stroke-width="1.5" opacity="1"/><polygon points="474,140 468.81387595779995,146.0913149170696 466.00476270912435,139.72399155340494" fill="#00FF88"/><line x1="372" y1="216" x2="474" y2="262" stroke="#00FF88" stroke-width="1.5" opacity="1"/><polygon points="474,262 466.0027731424706,262.2106242844737 468.8638563969886,255.86648315489026" fill="#00FF88"/><text x="320" y="320" font-family="ui-monospace,Menlo,Consolas,monospace" font-size="11" fill="#66716B" text-anchor="middle" font-weight="400" opacity="1">workflow engine</text></svg>